<mxfile host="app.diagrams.net" agent="Mozilla/5.0 (Windows NT 10.0; Win64; x64) AppleWebKit/537.36 (KHTML, like Gecko) Chrome/130.0.0.0 Safari/537.36" version="24.8.3">
  <diagram name="Page-1" id="2YBvvXClWsGukQMizWep">
    <mxGraphModel dx="1188" dy="647" grid="1" gridSize="10" guides="1" tooltips="1" connect="1" arrows="1" fold="1" page="1" pageScale="1" pageWidth="850" pageHeight="1100" math="0" shadow="0">
      <root>
        <mxCell id="0" />
        <mxCell id="1" parent="0" />
        <mxCell id="8B1qsTXkBDc8vsMzSOU1-48" value="EditCommand()" style="html=1;verticalAlign=bottom;endArrow=block;curved=0;rounded=0;entryX=0;entryY=0.5;entryDx=0;entryDy=0;" edge="1" parent="1">
          <mxGeometry width="80" relative="1" as="geometry">
            <mxPoint x="40" y="70" as="sourcePoint" />
            <mxPoint x="310" y="70" as="targetPoint" />
          </mxGeometry>
        </mxCell>
        <mxCell id="8B1qsTXkBDc8vsMzSOU1-50" value="execute(incomes, spendings)" style="html=1;verticalAlign=bottom;endArrow=block;curved=0;rounded=0;" edge="1" parent="1" target="8B1qsTXkBDc8vsMzSOU1-54">
          <mxGeometry width="80" relative="1" as="geometry">
            <mxPoint x="40" y="190" as="sourcePoint" />
            <mxPoint x="310" y="160" as="targetPoint" />
          </mxGeometry>
        </mxCell>
        <mxCell id="8B1qsTXkBDc8vsMzSOU1-52" value=":EditCommand" style="shape=umlLifeline;perimeter=lifelinePerimeter;whiteSpace=wrap;html=1;container=1;dropTarget=0;collapsible=0;recursiveResize=0;outlineConnect=0;portConstraint=eastwest;newEdgeStyle={&quot;curved&quot;:0,&quot;rounded&quot;:0};" vertex="1" parent="1">
          <mxGeometry x="310" y="50" width="100" height="380" as="geometry" />
        </mxCell>
        <mxCell id="8B1qsTXkBDc8vsMzSOU1-53" value="" style="html=1;points=[[0,0,0,0,5],[0,1,0,0,-5],[1,0,0,0,5],[1,1,0,0,-5]];perimeter=orthogonalPerimeter;outlineConnect=0;targetShapes=umlLifeline;portConstraint=eastwest;newEdgeStyle={&quot;curved&quot;:0,&quot;rounded&quot;:0};" vertex="1" parent="8B1qsTXkBDc8vsMzSOU1-52">
          <mxGeometry x="45" y="40" width="10" height="40" as="geometry" />
        </mxCell>
        <mxCell id="8B1qsTXkBDc8vsMzSOU1-54" value="" style="html=1;points=[[0,0,0,0,5],[0,1,0,0,-5],[1,0,0,0,5],[1,1,0,0,-5]];perimeter=orthogonalPerimeter;outlineConnect=0;targetShapes=umlLifeline;portConstraint=eastwest;newEdgeStyle={&quot;curved&quot;:0,&quot;rounded&quot;:0};" vertex="1" parent="8B1qsTXkBDc8vsMzSOU1-52">
          <mxGeometry x="45" y="140" width="10" height="200" as="geometry" />
        </mxCell>
        <mxCell id="8B1qsTXkBDc8vsMzSOU1-55" value="" style="shape=umlDestroy;whiteSpace=wrap;html=1;strokeWidth=3;targetShapes=umlLifeline;" vertex="1" parent="1">
          <mxGeometry x="345" y="420" width="30" height="30" as="geometry" />
        </mxCell>
        <mxCell id="8B1qsTXkBDc8vsMzSOU1-63" value="alt" style="shape=umlFrame;whiteSpace=wrap;html=1;pointerEvents=0;" vertex="1" parent="1">
          <mxGeometry x="270" y="210" width="530" height="160" as="geometry" />
        </mxCell>
        <mxCell id="8B1qsTXkBDc8vsMzSOU1-65" value="" style="line;strokeWidth=1;fillColor=none;align=left;verticalAlign=middle;spacingTop=-1;spacingLeft=3;spacingRight=3;rotatable=0;labelPosition=right;points=[];portConstraint=eastwest;strokeColor=inherit;" vertex="1" parent="1">
          <mxGeometry x="270" y="286" width="530" height="8" as="geometry" />
        </mxCell>
        <mxCell id="8B1qsTXkBDc8vsMzSOU1-66" value="incomes:IncomeList" style="shape=umlLifeline;perimeter=lifelinePerimeter;whiteSpace=wrap;html=1;container=1;dropTarget=0;collapsible=0;recursiveResize=0;outlineConnect=0;portConstraint=eastwest;newEdgeStyle={&quot;curved&quot;:0,&quot;rounded&quot;:0};" vertex="1" parent="1">
          <mxGeometry x="490" y="50" width="120" height="510" as="geometry" />
        </mxCell>
        <mxCell id="8B1qsTXkBDc8vsMzSOU1-77" value="" style="html=1;points=[[0,0,0,0,5],[0,1,0,0,-5],[1,0,0,0,5],[1,1,0,0,-5]];perimeter=orthogonalPerimeter;outlineConnect=0;targetShapes=umlLifeline;portConstraint=eastwest;newEdgeStyle={&quot;curved&quot;:0,&quot;rounded&quot;:0};" vertex="1" parent="8B1qsTXkBDc8vsMzSOU1-66">
          <mxGeometry x="55" y="200" width="10" height="30" as="geometry" />
        </mxCell>
        <mxCell id="8B1qsTXkBDc8vsMzSOU1-67" value="spendings:SpendingList" style="shape=umlLifeline;perimeter=lifelinePerimeter;whiteSpace=wrap;html=1;container=1;dropTarget=0;collapsible=0;recursiveResize=0;outlineConnect=0;portConstraint=eastwest;newEdgeStyle={&quot;curved&quot;:0,&quot;rounded&quot;:0};" vertex="1" parent="1">
          <mxGeometry x="660" y="50" width="140" height="510" as="geometry" />
        </mxCell>
        <mxCell id="8B1qsTXkBDc8vsMzSOU1-78" value="" style="html=1;points=[[0,0,0,0,5],[0,1,0,0,-5],[1,0,0,0,5],[1,1,0,0,-5]];perimeter=orthogonalPerimeter;outlineConnect=0;targetShapes=umlLifeline;portConstraint=eastwest;newEdgeStyle={&quot;curved&quot;:0,&quot;rounded&quot;:0};" vertex="1" parent="8B1qsTXkBDc8vsMzSOU1-67">
          <mxGeometry x="65" y="280" width="10" height="20" as="geometry" />
        </mxCell>
        <mxCell id="8B1qsTXkBDc8vsMzSOU1-68" value="[isIncomeList]" style="text;html=1;align=center;verticalAlign=middle;resizable=0;points=[];autosize=1;strokeColor=none;fillColor=none;" vertex="1" parent="1">
          <mxGeometry x="370" y="210" width="100" height="30" as="geometry" />
        </mxCell>
        <mxCell id="8B1qsTXkBDc8vsMzSOU1-69" value="[isSpendingList]" style="text;strokeColor=none;align=center;fillColor=none;html=1;verticalAlign=middle;whiteSpace=wrap;rounded=0;" vertex="1" parent="1">
          <mxGeometry x="395" y="286" width="60" height="30" as="geometry" />
        </mxCell>
        <mxCell id="8B1qsTXkBDc8vsMzSOU1-71" value="edit attribute" style="html=1;verticalAlign=bottom;endArrow=block;curved=0;rounded=0;" edge="1" parent="1" target="8B1qsTXkBDc8vsMzSOU1-77">
          <mxGeometry width="80" relative="1" as="geometry">
            <mxPoint x="366" y="250" as="sourcePoint" />
            <mxPoint x="530" y="250" as="targetPoint" />
          </mxGeometry>
        </mxCell>
        <mxCell id="8B1qsTXkBDc8vsMzSOU1-72" value="edit attribute" style="html=1;verticalAlign=bottom;endArrow=block;curved=0;rounded=0;" edge="1" parent="1" target="8B1qsTXkBDc8vsMzSOU1-78">
          <mxGeometry x="-0.6274" y="-2" width="80" relative="1" as="geometry">
            <mxPoint x="368.25" y="330" as="sourcePoint" />
            <mxPoint x="700" y="330" as="targetPoint" />
            <mxPoint as="offset" />
          </mxGeometry>
        </mxCell>
      </root>
    </mxGraphModel>
  </diagram>
</mxfile>
